<svg width="11" height="11" viewBox="0 0 11 11" fill="none" xmlns="http://www.w3.org/2000/svg">
<path d="M9.89228 8.36031C10.3158 8.78402 10.3158 9.46857 9.89228 9.89228C9.68102 10.1035 9.40371 10.2097 9.12619 10.2097C8.84888 10.2097 8.57157 10.1035 8.36031 9.89228L5.10495 6.63672L1.8496 9.89228C1.63834 10.1035 1.36103 10.2097 1.08371 10.2097C0.806202 10.2097 0.528889 10.1035 0.317631 9.89228C-0.105877 9.46857 -0.105877 8.78402 0.317631 8.36031L3.57318 5.10495L0.317631 1.8496C-0.105877 1.42589 -0.105877 0.741337 0.317631 0.317631C0.741337 -0.105877 1.42589 -0.105877 1.8496 0.317631L5.10495 3.57318L8.36031 0.317631C8.78402 -0.105877 9.46857 -0.105877 9.89228 0.317631C10.3158 0.741337 10.3158 1.42589 9.89228 1.8496L6.63672 5.10495L9.89228 8.36031Z" fill="black"/>
</svg>
